<?xml version="1.0" encoding="UTF-8" standalone="no"?>
<!-- Created with Inkscape (http://www.inkscape.org/) -->

<svg
   version="1.1"
   id="svg1"
   width="60"
   height="80"
   viewBox="0 0 120 139.19952"
   sodipodi:docname="logo_transparent_formato.svg"
   inkscape:version="1.3 (0e150ed6c4, 2023-07-21)"
   xmlns:inkscape="http://www.inkscape.org/namespaces/inkscape"
   xmlns:sodipodi="http://sodipodi.sourceforge.net/DTD/sodipodi-0.dtd"
   xmlns="http://www.w3.org/2000/svg"
   xmlns:svg="http://www.w3.org/2000/svg">
  <defs
     id="defs1" />
  <sodipodi:namedview
     id="namedview1"
     pagecolor="#ffffff"
     bordercolor="#000000"
     borderopacity="0.25"
     inkscape:showpageshadow="2"
     inkscape:pageopacity="0.0"
     inkscape:pagecheckerboard="0"
     inkscape:deskcolor="#d1d1d1"
     inkscape:zoom="0.47906484"
     inkscape:cx="476.97092"
     inkscape:cy="437.31032"
     inkscape:window-width="1920"
     inkscape:window-height="1009"
     inkscape:window-x="-8"
     inkscape:window-y="-8"
     inkscape:window-maximized="1"
     inkscape:current-layer="g1" />
  <g
     inkscape:groupmode="layer"
     inkscape:label="Image"
     id="g1"
     transform="translate(-551.48175,-526.75012)">
    <path
       style="fill:#2563eb;fill-opacity:1;stroke-width:0.35821"
       d="m 595.00417,656.63958 c -8.96418,-5.18817 -22.42388,-12.97349 -29.91045,-17.30071 l -13.61194,-7.86771 v -35.03409 -35.0341 l 14.50746,-8.38828 c 7.97911,-4.61355 21.47803,-12.41043 29.99756,-17.32641 l 15.49011,-8.93813 30.00243,17.33815 30.00244,17.33815 v 35.00928 35.00928 l -29.73134,17.19005 c -16.35224,9.45453 -29.89254,17.24573 -30.08956,17.31379 -0.19702,0.068 -7.69253,-4.12111 -16.65671,-9.30927 z m 44.28877,-12.44232 27.35302,-15.82045 v -31.94117 -31.94116 l -27.35302,-15.82046 c -15.04416,-8.70126 -27.55372,-15.82047 -27.79902,-15.82047 -0.24526,0 -12.7603,7.11708 -27.81116,15.81575 l -27.36516,15.81575 v 31.9478 31.94781 l 12.62687,7.30203 c 6.94477,4.0161 19.23582,11.13054 27.31343,15.80982 8.0776,4.67931 14.91055,8.51174 15.1843,8.51652 0.27374,0.005 12.80658,-7.11051 27.85074,-15.81177 z m -35.63778,-22.37674 -7.28932,-4.10021 -1.23863,0.7308 c -0.68124,0.40194 -1.43091,0.72994 -1.66588,0.72888 -0.23502,-10e-4 -2.84522,-1.34521 -5.80045,-2.98701 l -5.37313,-2.98509 v -6.57574 -6.57573 l 2.32836,-1.34553 2.32836,-1.3455 0.1791,-6.01712 0.17911,-6.01711 6.3582,-3.53732 6.35821,-3.53733 v -2.40715 c 0,-1.84968 0.14519,-2.53121 0.62687,-2.94281 0.34478,-0.2946 2.86606,-1.77033 5.60285,-3.27939 2.73683,-1.50907 5.08911,-2.74377 5.22731,-2.74377 0.13822,0 2.57366,1.28832 5.41207,2.86295 2.83841,1.57461 6.05169,3.14823 5.81882,3.01756 0.23458,0.14162 0.16387,0.066 0.25582,0.19545 0.14319,0.20157 0.0295,1.61679 -0.008,2.91953 l -0.0696,2.36862 2.44778,1.35487 c 1.34631,0.74519 3.33436,1.83702 4.41795,2.42632 1.08357,0.58928 2.89317,1.62305 4.02128,2.29724 l 2.05115,1.2258 0.0982,5.97596 0.098,5.97595 2.49312,1.27805 2.49313,1.27804 -0.0983,6.42676 c -0.0846,5.53033 0.14461,6.58496 -0.37496,6.98431 -0.3321,0.25524 -3.1211,1.57222 -5.79791,3.04086 -2.67683,1.46863 -5.04523,2.67025 -5.26313,2.67025 -0.21786,0 -0.95384,-0.32905 -1.63548,-0.73122 l -1.23934,-0.73123 -7.42495,4.13421 c -4.08373,2.2738 -7.60538,4.1191 -7.82589,4.10062 -0.22055,-0.0185 -3.68117,-1.87866 -7.69029,-4.13377 z m 14.00238,-1.78397 c 3.40035,-1.89412 6.23493,-3.49137 6.29906,-3.54944 0.0641,-0.058 -0.98362,-0.7104 -2.32836,-1.44964 -1.34472,-0.73924 -2.72706,-1.58488 -3.07182,-1.87922 -0.5508,-0.47018 -0.6262,-1.25666 -0.6214,-6.47962 0.004,-3.26946 0.12394,-6.11962 0.26866,-6.3337 0.14475,-0.21408 2.62682,-1.70512 5.5157,-3.31344 2.88886,-1.6083 5.54855,-2.91918 5.91046,-2.91303 0.36184,0.006 1.30269,0.40831 2.09076,0.89369 0.78805,0.48538 1.55854,0.88333 1.71219,0.88434 0.15363,10e-4 0.23423,-2.05102 0.1791,-4.56005 l -0.10032,-4.56189 -5.01492,-2.77803 c -2.75821,-1.52792 -5.40885,-2.82627 -5.54762,-2.82813 -0.13877,-0.002 -0.0196,1.13143 -0.0778,2.46128 l -0.10596,2.41792 -5.65716,3.14532 -5.65715,3.14532 -5.62643,-3.14664 -5.62643,-3.14664 -0.10596,-2.4166 c -0.0582,-1.32913 -0.0542,-2.4316 -0.19299,-2.42975 -0.13873,0.002 -2.67423,1.27 -5.43244,2.79792 l -5.01492,2.77803 -0.10032,4.56189 c -0.0551,2.50903 0.0254,4.56106 0.1791,4.56005 0.15367,-10e-4 0.92415,-0.39896 1.7122,-0.88434 0.78806,-0.48538 1.74108,-0.88754 2.11781,-0.89369 0.37669,-0.006 1.42446,0.42259 2.32836,0.95275 0.90386,0.53016 2.77174,1.5886 4.15086,2.3521 1.3791,0.7635 3.11193,1.64374 3.85074,1.95608 l 1.34328,0.56792 v 6.33789 c 0,5.59344 -0.0736,6.40077 -0.62687,6.87305 -0.34477,0.29434 -1.72986,1.14152 -3.07798,1.88267 l -2.45115,1.34754 2.02134,1.21763 c 1.1117,0.66968 2.0794,1.21761 2.1504,1.21761 0.071,0 1.23156,0.62466 2.57906,1.38813 1.34748,0.76346 3.17536,1.80442 4.06192,2.31324 0.88656,0.5088 1.65073,0.93192 1.69816,0.94022 0.0474,0.008 2.86828,-1.53461 6.26865,-3.42874 z m -25.51904,-8.5283 v -4.44978 l -3.72484,-1.99798 c -2.04867,-1.09888 -3.82675,-1.99798 -3.95133,-1.99798 -0.12455,0 -0.18123,1.9591 -0.12591,4.35356 l 0.10056,4.35356 3.76121,2.08522 c 2.06865,1.14688 3.80149,2.08926 3.85074,2.0942 0.0493,0.005 0.0896,-1.99342 0.0896,-4.4408 z m 9.9403,0.41795 c 0.31318,-0.24787 0.44776,-1.63315 0.44776,-4.60905 0,-2.34004 -0.0862,-4.25464 -0.19165,-4.25464 -0.10536,0 -1.87851,0.90082 -3.94029,2.00181 l -3.74866,2.00183 v 4.47685 4.47685 l 3.49254,-1.86962 c 1.92089,-1.02829 3.69403,-2.0291 3.9403,-2.22403 z m 26.2388,-0.38477 v -4.41659 l -3.72616,-2.03117 c -2.04942,-1.11714 -3.8275,-2.03116 -3.95133,-2.03116 -0.12383,0 -0.17989,1.97462 -0.12459,4.38806 l 0.10056,4.38806 3.7612,2.05634 c 2.06866,1.13098 3.80148,2.05785 3.85075,2.0597 0.0493,0.002 0.0896,-1.9841 0.0896,-4.41324 z m 9.22388,0.75427 1.16418,-0.69461 v -4.26928 c 0,-2.34812 -0.097,-4.2693 -0.21543,-4.2693 -0.11856,0 -1.89166,0.8991 -3.94029,1.99798 l -3.72488,1.99798 v 4.47487 4.47487 l 2.77612,-1.50895 c 1.52688,-0.82992 3.3,-1.82153 3.9403,-2.20356 z m -36.45199,-11.38579 c 0.004,-0.10032 -1.66621,-1.1078 -3.70789,-2.2388 -2.04168,-1.131 -3.82282,-2.05637 -3.95803,-2.05637 -0.13522,0 -1.93045,0.92499 -3.98937,2.05555 -2.05888,1.13056 -3.74031,2.13802 -3.73644,2.2388 0.004,0.1008 1.7367,1.09673 3.85074,2.21319 l 3.84372,2.02992 3.84653,-2.02992 c 2.11554,-1.11646 3.84838,-2.11201 3.85074,-2.21237 z m 35.74997,0.25126 c 0.34288,-0.26674 -0.48931,-0.89652 -3.22388,-2.43972 -2.02732,-1.14408 -3.829,-2.08614 -4.00373,-2.09344 -0.17475,-0.007 -1.98817,0.9121 -4.02985,2.0431 -2.0417,1.131 -3.71001,2.13846 -3.70743,2.2388 0.004,0.10032 1.73523,1.09862 3.85035,2.2184 l 3.84559,2.03595 3.40341,-1.82178 c 1.87186,-1.00198 3.61136,-1.98357 3.86554,-2.18131 z m -26.51083,-16.78276 -0.10056,-4.35574 -3.76121,-2.07472 c -2.06864,-1.1411 -3.8714,-2.0825 -4.00613,-2.09202 -0.13476,-0.01 -0.251,1.95732 -0.25838,4.37074 l -0.0133,4.38807 3.66135,2.01825 c 2.01375,1.11005 3.86781,2.03691 4.12013,2.05971 0.35502,0.032 0.43605,-0.94384 0.35821,-4.31429 z m 6.56903,2.28434 3.71845,-2.0714 0.077,-4.37636 c 0.0422,-2.407 -0.0383,-4.36858 -0.1791,-4.35906 -0.14086,0.01 -1.94866,0.95094 -4.01731,2.09202 l -3.7612,2.07472 -0.10056,4.35574 c -0.0558,2.41723 0.043,4.35574 0.22187,4.35574 0.17731,0 1.99573,-0.93213 4.04085,-2.0714 z m -1.67016,-10.60363 c 1.96166,-1.05529 3.61204,-2.06049 3.66752,-2.23379 0.0554,-0.17328 -1.5898,-1.23806 -3.65617,-2.36616 l -3.75707,-2.0511 -3.75704,2.0511 c -2.0664,1.1281 -3.71169,2.19288 -3.65616,2.36616 0.0554,0.1733 1.70586,1.1785 3.66748,2.23379 1.96166,1.05529 3.64721,1.91871 3.74572,1.91871 0.0985,0 1.7841,-0.86342 3.74572,-1.91871 z"
       id="path8"
       sodipodi:nodetypes="sscccsscccccsssscccssscccssssccssscccccccccssssscsccssscccccssssscssccsssscsssscscscscccccscscscssssscssscssssssscssscssssssscccssscssscsssscssscccsscssscscscsssscscssccssccssccscssscsssssscsssss" />
  </g>
</svg>
