<?xml version="1.0" encoding="UTF-8" standalone="no"?>
<!-- Created with Inkscape (http://www.inkscape.org/) -->

<svg
   version="1.1"
   id="svg1"
   width="120"
   height="33.683533"
   viewBox="0 0 220 33.683533"
   sodipodi:docname="logo_transparent.svg"
   inkscape:version="1.3 (0e150ed6c4, 2023-07-21)"
   inkscape:export-filename="redimesionado\logo_transparent.svg"
   inkscape:export-xdpi="18"
   inkscape:export-ydpi="18"
   xmlns:inkscape="http://www.inkscape.org/namespaces/inkscape"
   xmlns:sodipodi="http://sodipodi.sourceforge.net/DTD/sodipodi-0.dtd"
   xmlns="http://www.w3.org/2000/svg"
   xmlns:svg="http://www.w3.org/2000/svg">
  <defs
     id="defs1" />
  <sodipodi:namedview
     id="namedview1"
     pagecolor="#ffffff"
     bordercolor="#000000"
     borderopacity="0.25"
     inkscape:showpageshadow="2"
     inkscape:pageopacity="0.0"
     inkscape:pagecheckerboard="0"
     inkscape:deskcolor="#d1d1d1"
     inkscape:zoom="0.47906484"
     inkscape:cx="476.97092"
     inkscape:cy="437.31032"
     inkscape:window-width="1920"
     inkscape:window-height="1009"
     inkscape:window-x="-8"
     inkscape:window-y="-8"
     inkscape:window-maximized="1"
     inkscape:current-layer="g1" />
  <g
     inkscape:groupmode="layer"
     inkscape:label="Image"
     id="g1"
     transform="translate(-455.87622,-602.77283)">
    <path
       style="fill:#2563eb;fill-opacity:1;stroke-width:0.331691"
       d="m 493.79027,636.26701 c -0.94768,-0.13648 -2.42879,-0.58978 -3.29135,-1.00733 -0.86256,-0.41756 -2.15476,-1.34567 -2.87155,-2.06246 -0.71679,-0.71679 -1.6942,-2.14628 -2.17201,-3.17664 -0.76016,-1.63919 -0.86996,-2.30876 -0.87831,-5.35614 -0.007,-2.64988 0.14462,-3.89832 0.63513,-5.22048 0.35456,-0.95575 1.18112,-2.44837 1.83678,-3.31692 0.83557,-1.10686 1.84629,-1.91288 3.37928,-2.69492 1.88158,-0.95984 2.52893,-1.11794 4.63329,-1.1315 1.43928,-0.009 3.13222,0.21213 4.113,0.53789 0.91677,0.3045 2.21513,1.00557 2.88523,1.55792 0.68537,0.56494 1.68253,1.94714 2.27941,3.15958 0.91936,1.86748 1.08231,2.59674 1.22023,5.46109 l 0.15919,3.3058 h -7.5074 c -6.93086,0 -7.50698,0.0446 -7.50194,0.58046 0.003,0.31926 0.33945,1.17751 0.74767,1.90722 0.48905,0.87421 1.24656,1.58133 2.22082,2.07308 0.85314,0.43061 2.08476,0.7463 2.91159,0.7463 0.78813,0 1.98791,-0.23181 2.66616,-0.51513 0.67826,-0.28332 1.61772,-0.88343 2.08768,-1.33358 l 0.85449,-0.81844 1.42526,1.69027 1.42526,1.69028 -1.07336,1.10742 c -0.59035,0.60908 -1.91476,1.47604 -2.94313,1.92657 -1.02837,0.45053 -2.69071,0.89084 -3.69407,0.97847 -1.00337,0.0876 -2.59967,0.0477 -3.54735,-0.0888 z m 5.86919,-15.11812 c 0,-0.47411 -0.23542,-1.35815 -0.52317,-1.96452 -0.29817,-0.62835 -0.99731,-1.32748 -1.62566,-1.62566 -0.60637,-0.28774 -1.60235,-0.52261 -2.21329,-0.52193 -0.61093,6.7e-4 -1.60456,0.30229 -2.20807,0.67024 -0.63354,0.38626 -1.36641,1.26187 -1.73409,2.07183 -0.35025,0.77156 -0.64009,1.58941 -0.6441,1.81745 -0.005,0.31158 1.10552,0.41461 4.47054,0.41461 h 4.47784 z m 19.56978,15.13196 c -0.82094,-0.14323 -2.03586,-0.48747 -2.69981,-0.76497 -0.66398,-0.2775 -1.79959,-1.0397 -2.52357,-1.69378 -0.74269,-0.67098 -1.73435,-2.09435 -2.27554,-3.26622 l -0.95921,-2.07698 v -4.15312 -4.15312 l 1.09192,-2.21801 c 0.64866,-1.31761 1.64383,-2.69043 2.45144,-3.38171 0.74772,-0.64003 2.11479,-1.41455 3.03789,-1.72116 0.92313,-0.30661 2.65595,-0.5545 3.8507,-0.55088 1.19478,0.004 2.78369,0.1744 3.53089,0.3795 0.7472,0.20509 1.96865,0.81482 2.71426,1.35496 0.74564,0.54014 1.75817,1.6688 2.25006,2.50816 0.4919,0.83934 0.96907,2.18899 1.06039,2.9992 l 0.16604,1.47312 h -2.86249 c -2.50461,0 -2.86267,-0.0726 -2.86376,-0.58046 0,-0.31926 -0.29206,-1.05743 -0.64753,-1.64038 -0.43256,-0.70942 -1.07969,-1.18979 -1.95691,-1.45261 -0.72083,-0.21598 -1.82357,-0.29645 -2.45051,-0.17884 -0.62692,0.11762 -1.44358,0.5474 -1.81484,0.95507 -0.37123,0.40767 -0.86323,1.10527 -1.09332,1.55022 -0.2301,0.44494 -0.49223,2.10454 -0.58252,3.68799 -0.0969,1.69913 0,3.56037 0.23467,4.54157 0.25398,1.05867 0.75965,2.00822 1.39208,2.61414 0.86857,0.83214 1.24371,0.95157 2.9888,0.95157 1.83468,0 2.0736,-0.0873 2.96347,-1.08323 0.5323,-0.59577 0.96784,-1.37939 0.96784,-1.74138 0,-0.60478 0.2286,-0.65814 2.81937,-0.65814 h 2.81938 v 1.09267 c 0,0.64311 -0.4435,1.83179 -1.078,2.88915 -0.5929,0.98807 -1.67504,2.20255 -2.40476,2.69883 -0.72972,0.49628 -1.92381,1.05635 -2.65353,1.24459 -0.72972,0.18825 -1.92381,0.40807 -2.65353,0.48848 -0.72972,0.0804 -1.99844,0.029 -2.81937,-0.11423 z m 54.23151,-0.0251 c -1.09458,-0.14193 -2.88106,-0.59208 -3.97001,-1.00032 -1.36361,-0.51121 -2.50689,-1.26927 -3.67304,-2.43543 -1.1118,-1.11181 -1.88411,-2.25348 -2.2492,-3.32499 -0.30579,-0.89751 -0.55602,-1.97838 -0.55602,-2.40196 v -0.77014 h 3.15107 3.15107 v 0.74631 c 0,0.41046 0.29786,1.23276 0.66036,1.82733 0.36251,0.59457 1.12951,1.36711 1.70446,1.71675 0.57496,0.34966 1.77276,0.73577 2.66176,0.85804 0.92419,0.12711 2.3096,0.056 3.23515,-0.16603 0.91533,-0.21959 1.95804,-0.74949 2.39955,-1.21947 0.5723,-0.60918 0.78084,-1.21551 0.78084,-2.27032 0,-1.07761 -0.20833,-1.66185 -0.82923,-2.32557 -0.45608,-0.48753 -1.09982,-1.03223 -1.43052,-1.21046 -0.33069,-0.17822 -2.26515,-0.91503 -4.29878,-1.63735 -2.03367,-0.72231 -4.32472,-1.68087 -5.0913,-2.13011 -0.7666,-0.44924 -1.87598,-1.22255 -2.46536,-1.71847 -0.58935,-0.49592 -1.42193,-1.65407 -1.85014,-2.57368 -0.49366,-1.06007 -0.77712,-2.27898 -0.77457,-3.33047 0.004,-0.91215 0.27676,-2.2555 0.61005,-2.98521 0.33331,-0.72973 1.11057,-1.81764 1.72728,-2.41761 0.61668,-0.59995 1.87104,-1.45766 2.78743,-1.90601 0.9164,-0.44836 2.75812,-0.9523 4.09268,-1.11987 1.48512,-0.18648 3.2724,-0.18488 4.60696,0.004 1.19929,0.16984 2.81194,0.58811 3.58369,0.92948 0.77172,0.34138 2.01051,1.16941 2.75287,1.84007 0.74233,0.67065 1.64194,1.84424 1.99911,2.60797 0.35716,0.76374 0.74581,1.94834 0.86362,2.63245 l 0.21424,1.24384 h -3.13014 -3.13014 l -0.22425,-0.91215 c -0.12335,-0.50168 -0.43946,-1.24488 -0.70249,-1.65155 -0.263,-0.40667 -0.96187,-0.99225 -1.55305,-1.30128 -0.66225,-0.34617 -1.8389,-0.56187 -3.06502,-0.56187 -1.21376,0 -2.40284,0.21576 -3.04801,0.55308 -0.58182,0.30418 -1.29081,0.88566 -1.57553,1.29215 -0.28483,0.4065 -0.51777,1.19508 -0.51777,1.7524 0,0.55732 0.23377,1.34704 0.51945,1.75494 0.28572,0.40789 1.11897,1.04746 1.85167,1.42126 0.73271,0.3738 2.84979,1.20598 4.70468,1.84928 1.85485,0.64331 3.89489,1.47811 4.53339,1.85513 0.63851,0.37701 1.73332,1.22203 2.43289,1.8778 0.69957,0.65578 1.58608,1.78937 1.97001,2.5191 0.5126,0.97427 0.7006,1.94362 0.70763,3.64859 0.008,1.86029 -0.15317,2.61548 -0.8091,3.79896 -0.45026,0.81243 -1.42719,1.94064 -2.17091,2.50715 -0.74376,0.56651 -2.16174,1.27053 -3.15107,1.5645 -0.98937,0.29396 -2.61977,0.60044 -3.62313,0.68107 -1.00337,0.0806 -2.71987,0.0305 -3.81445,-0.11146 z m 26.867,0.14195 c -0.36486,-0.0824 -0.99647,-0.22084 -1.40359,-0.30759 -0.40711,-0.0867 -1.25628,-0.61081 -1.88699,-1.16458 -0.63071,-0.55378 -1.32994,-1.55913 -1.55384,-2.23413 -0.26396,-0.79575 -0.42055,-3.67649 -0.44536,-8.19279 l -0.0382,-6.96552 -1.73091,-0.10025 -1.73089,-0.10026 v -2.3045 -2.30451 h 1.75524 1.75525 l -0.0279,-2.98522 -0.0279,-2.98522 h 3.08201 3.082 v 2.98522 2.98522 h 1.99015 1.99015 v 2.32184 2.32184 h -1.99015 -1.99015 v 6.59321 c 0,5.72833 0.0719,6.65292 0.54852,7.04844 0.3017,0.25037 1.2719,0.45522 2.156,0.45522 h 1.60747 v 2.21657 c 0,1.82733 -0.10193,2.2454 -0.58046,2.38077 -0.31925,0.0903 -1.32676,0.23663 -2.23891,0.32515 -0.91216,0.0885 -1.95698,0.0935 -2.32185,0.0111 z m 17.81746,-0.16536 c -0.9638,-0.15844 -2.32393,-0.57967 -3.02257,-0.93609 -0.6986,-0.35641 -1.96086,-1.41618 -2.80498,-2.35505 -1.09966,-1.22309 -1.72383,-2.31908 -2.2016,-3.8659 -0.42609,-1.37959 -0.6668,-3.09152 -0.6668,-4.74254 0,-1.68521 0.24154,-3.36558 0.69453,-4.83226 0.57363,-1.8572 1.02167,-2.57575 2.57389,-4.12797 1.37512,-1.37513 2.36353,-2.04018 3.68406,-2.47878 1.01842,-0.33827 2.75115,-0.59656 3.97701,-0.59284 1.19479,0.004 2.77821,0.17292 3.51872,0.37622 0.7405,0.20328 2.02703,0.82046 2.85894,1.37149 0.83192,0.55104 1.91234,1.57874 2.40095,2.28379 0.48859,0.70505 1.18464,2.06167 1.54678,3.01471 0.48092,1.26571 0.66066,2.55972 0.66676,4.80051 0.004,1.68724 -0.096,3.50127 -0.22373,4.03119 -0.12766,0.52991 -0.52931,1.56051 -0.89254,2.29023 -0.36327,0.72972 -1.09681,1.88128 -1.6301,2.55903 -0.58384,0.74197 -1.78705,1.6215 -3.02403,2.21052 -1.19429,0.56871 -2.81808,1.04179 -3.87866,1.13002 -1.00337,0.0835 -2.61283,0.0222 -3.57663,-0.1363 z m 4.56012,-5.21321 c 0.63426,-0.34014 1.43331,-1.17792 1.80308,-1.89047 0.46861,-0.90297 0.70528,-2.14189 0.80412,-4.20912 0.10461,-2.1881 0.004,-3.29033 -0.40443,-4.35525 -0.29949,-0.78416 -0.99942,-1.8616 -1.55547,-2.39431 -0.88243,-0.84544 -1.25843,-0.96858 -2.95756,-0.96858 -1.70502,0 -2.07373,0.12182 -2.97122,0.98167 -0.58938,0.56465 -1.2327,1.68226 -1.5144,2.63082 -0.26937,0.90702 -0.48892,2.55492 -0.48789,3.662 0,1.10708 0.15603,2.56796 0.34443,3.24641 0.18843,0.67845 0.73516,1.70007 1.21495,2.27027 0.47979,0.5702 1.18304,1.16242 1.5628,1.31604 0.37972,0.15362 1.21515,0.28877 1.85651,0.30034 0.64136,0.0116 1.67866,-0.25386 2.30508,-0.58983 z m 41.24257,5.2479 c -0.94768,-0.13647 -2.42878,-0.58978 -3.29134,-1.00733 -0.86257,-0.41756 -2.15477,-1.34566 -2.87156,-2.06246 -0.71678,-0.71679 -1.69421,-2.14628 -2.17201,-3.17663 -0.76017,-1.63919 -0.86996,-2.30876 -0.87832,-5.35614 -0.007,-2.64989 0.14462,-3.89832 0.63513,-5.22049 0.35457,-0.95575 1.18111,-2.44836 1.8368,-3.31692 0.83557,-1.10685 1.84626,-1.91289 3.37927,-2.69491 1.88159,-0.95986 2.52892,-1.11794 4.6333,-1.1315 1.43927,-0.009 3.13219,0.21212 4.11297,0.53788 0.91679,0.30451 2.21514,1.00557 2.88525,1.55792 0.68537,0.56494 1.68254,1.94715 2.27941,3.15958 0.91935,1.86749 1.08231,2.59675 1.22023,5.4611 l 0.15918,3.30578 h -7.5074 c -6.93086,0 -7.50697,0.0446 -7.50193,0.58046 0.004,0.31926 0.33945,1.1775 0.74767,1.90722 0.48904,0.87421 1.24656,1.58133 2.2208,2.07308 0.85315,0.43061 2.08478,0.7463 2.91159,0.7463 0.78816,0 1.98792,-0.23181 2.66617,-0.51513 0.67827,-0.28332 1.61772,-0.88343 2.0877,-1.33358 l 0.85446,-0.81844 1.42528,1.69027 1.42525,1.69028 -1.07335,1.10742 c -0.59035,0.60908 -1.91476,1.47604 -2.94313,1.92657 -1.02838,0.45053 -2.69072,0.89084 -3.69408,0.97847 -1.00337,0.0876 -2.59967,0.0477 -3.54734,-0.0888 z m 5.86917,-15.11813 c 0,-0.47411 -0.2354,-1.35815 -0.52314,-1.96452 -0.29819,-0.62835 -0.99733,-1.32748 -1.62569,-1.62566 -0.60636,-0.28774 -1.60233,-0.52261 -2.21328,-0.52193 -0.61094,6.7e-4 -1.60455,0.30229 -2.20806,0.67024 -0.63357,0.38626 -1.36644,1.26187 -1.73412,2.07183 -0.35023,0.77156 -0.64006,1.58941 -0.64408,1.81745 -0.005,0.31158 1.10553,0.41461 4.47054,0.41461 h 4.47783 z m -204.32181,1.8571 v -13.26765 h -4.80953 -4.80952 v -2.65353 -2.65353 h 12.77011 12.77012 v 2.65353 2.65353 h -4.80953 -4.80952 v 13.26765 13.26765 h -3.15107 -3.15106 z m 70.98192,-3.48276 v -16.75041 h 2.94973 c 2.06604,0 2.99053,0.12421 3.08592,0.41461 0.0749,0.22804 0.12701,2.98937 0.11577,6.13629 -0.0113,3.14693 0.0169,5.72168 0.0623,5.72168 0.0455,0 0.74902,-0.50862 1.56342,-1.13028 0.85155,-0.65 2.18635,-1.28159 3.14135,-1.4864 1.12696,-0.24169 2.21152,-0.25167 3.37479,-0.031 0.94277,0.17879 2.19139,0.62004 2.7747,0.98054 0.58331,0.36051 1.49679,1.44284 2.02995,2.40517 l 0.9694,1.7497 0.10601,9.37028 0.10601,9.37027 h -2.98791 -2.98794 l -0.10329,-8.59787 -0.10332,-8.59787 -0.79934,-0.85025 c -0.43966,-0.46764 -1.29791,-0.94377 -1.90723,-1.05809 -0.60931,-0.11431 -1.65275,-0.10562 -2.31869,0.0193 -0.66596,0.12493 -1.60372,0.62664 -2.08395,1.11491 l -0.87307,0.88776 0.0126,8.54104 0.0126,8.54106 h -3.07003 -3.07003 z m 101.16584,4.97537 v -11.77504 h 2.81937 2.81938 v 1.32676 c 0,0.72973 0.0571,1.32677 0.12684,1.32677 0.0697,0 0.70746,-0.58065 1.41715,-1.29034 0.71241,-0.71239 1.86149,-1.44804 2.56547,-1.64242 0.70129,-0.19364 1.70545,-0.266 2.23142,-0.16081 l 0.95633,0.19127 v 2.9122 2.9122 l -1.25018,-0.16769 c -0.68763,-0.0922 -1.89886,0.007 -2.69168,0.22046 -0.7928,0.21348 -1.79746,0.74414 -2.23254,1.17924 l -0.79112,0.7911 v 7.97568 7.97566 h -2.98522 -2.98522 z"
       id="path8"
       sodipodi:nodetypes="ssssssssssssscssssssscccsssssssssssscssssscccsssssssscscsssssscssssscsssssscsssscccssssssssssssscssssssssscccssssscsssssssssssscccsssscccccccccccccccccccssscsssccsssssssssssssssssssssssscsssscssssssssssssssssssscscssssscccssssssssssscscscccccccccccccccccccssssssssscccccccssssccccccccccssssscccssscccccc" />
  </g>
</svg>
